<?xml version="1.0" encoding="UTF-8" standalone="no"?>
<!-- Created with Inkscape (http://www.inkscape.org/) -->

<svg
   width="106.40404mm"
   height="58.514904mm"
   viewBox="0 0 106.40404 58.514904"
   version="1.1"
   id="svg1"
   xml:space="preserve"
   xmlns:xlink="http://www.w3.org/1999/xlink"
   xmlns="http://www.w3.org/2000/svg"
   xmlns:svg="http://www.w3.org/2000/svg"><defs
     id="defs1"><linearGradient
       id="linearGradient15"><stop
         style="stop-color:#af75ff;stop-opacity:1;"
         offset="0"
         id="stop14" /><stop
         style="stop-color:#ff2ef8;stop-opacity:1;"
         offset="1"
         id="stop15" /></linearGradient><linearGradient
       id="linearGradient11"><stop
         style="stop-color:#af75ff;stop-opacity:1;"
         offset="0"
         id="stop11" /><stop
         style="stop-color:#ff2ef8;stop-opacity:1;"
         offset="1"
         id="stop12" /></linearGradient><linearGradient
       xlink:href="#linearGradient11"
       id="linearGradient13"
       x1="10.164334"
       y1="12.983494"
       x2="114.46141"
       y2="75.176201"
       gradientUnits="userSpaceOnUse" /><linearGradient
       xlink:href="#linearGradient15"
       id="linearGradient14"
       x1="11.045258"
       y1="12.242838"
       x2="119.42662"
       y2="67.008652"
       gradientUnits="userSpaceOnUse" /></defs><g
     id="layer1"
     transform="translate(-10.61126,-12.620854)"><g
       id="g1"
       style="fill:#de75fc;fill-opacity:1"><path
         style="-inkscape-font-specification:'Comic Neue Bold';fill:url(#linearGradient13);stroke-width:2.98029;stroke-linecap:round;paint-order:stroke markers fill"
         d="m 49.634576,40.679248 c 1.143,0 1.905,-0.8763 1.905,-1.8288 0,-0.4572 -0.1143,-0.7239 -0.2667,-1.1811 L 43.690977,15.685649 c -0.3048,-0.9144 -1.0287,-1.2573 -1.7526,-1.2573 -0.762,0 -1.4859,0.4191 -1.7907,1.1811 l -5.6388,14.325599 -1.4097,0.3048 c -0.8382,0.1905 -1.4478,0.9144 -1.4478,1.8288 0,0.8001 0.381,1.3716 0.9906,1.6764 0.1143,0.0762 0.2286,0.1143 0.3429,0.1524 l -1.524,3.81 c -0.1524,0.381 -0.2667,0.8001 -0.2667,1.143 0,0.9906 0.8763,1.7907 1.905,1.7907 0.9144,0 1.4859,-0.5715 1.7526,-1.2192 l 2.4765,-6.2484 7.7724,-1.7145 2.743199,7.9248 c 0.2667,0.8382 0.8382,1.2954 1.7907,1.2954 z m -10.706099,-11.696699 2.8575,-7.2009 2.0574,6.1341 z m 17.4117,11.658599 c 1.143,0 1.7907,-0.8382 1.7907,-1.905 v -3.2004 c 0,-2.8194 0.4191,-4.572 1.5621,-6.629399 1.2954,-2.3622 2.8956,-3.7338 4.4196,-3.7338 1.7526,0 2.5146,1.2954 2.5146,7.353299 v 6.3246 c 0,0.9144 0.8382,1.7907 1.8288,1.7907 1.0287,0 1.7526,-0.8763 1.7526,-1.8288 0,-2.1717 0.0381,-3.4671 0.0381,-6.6675 0,-7.962899 -1.6383,-10.515599 -5.7912,-10.515599 -2.5908,0 -4.8387,1.6383 -6.2865,4.6863 v -2.8956 c 0,-1.0287 -0.8001,-1.8288 -1.7526,-1.8288 -0.9906,0 -1.905,0.8001 -1.905,1.8288 v 15.468599 c 0,0.9144 0.8382,1.7526 1.8288,1.7526 z m 20.688271,0 c 1.143,0 1.7907,-0.8382 1.7907,-1.905 v -3.2004 c 0,-2.8194 0.4191,-4.572 1.5621,-6.629399 1.2954,-2.3622 2.8956,-3.7338 4.4196,-3.7338 1.7526,0 2.514599,1.2954 2.514599,7.353299 v 6.3246 c 0,0.9144 0.8382,1.7907 1.8288,1.7907 1.0287,0 1.7526,-0.8763 1.7526,-1.8288 0,-2.1717 0.0381,-3.4671 0.0381,-6.6675 0,-7.962899 -1.6383,-10.515599 -5.791199,-10.515599 -2.5908,0 -4.8387,1.6383 -6.2865,4.6863 v -2.8956 c 0,-1.0287 -0.8001,-1.8288 -1.7526,-1.8288 -0.9906,0 -1.905,0.8001 -1.905,1.8288 v 15.468599 c 0,0.9144 0.8382,1.7526 1.8288,1.7526 z m 31.051472,0.381 c 1.0668,0 1.8288,-0.9144 1.8288,-1.905 V 23.267549 c -0.9906,-0.4572 -3.3528,-1.6383 -6.096,-1.6383 -5.638802,0 -9.144001,5.5245 -9.144001,10.782299 0,4.9149 3.162299,8.2296 7.353301,8.2296 1.524,0 3.1623,-0.4191 4.3434,-1.6764 v 0.5334 c 0,0.9144 0.6858,1.524 1.7145,1.524 z m -5.7912,-3.9243 c -2.438402,0 -3.924302,-1.6002 -3.924302,-4.7625 0,-3.733799 2.171702,-7.200899 5.524502,-7.200899 0.8001,0 1.7526,0.1905 2.4003,0.4572 l -0.1143,9.944099 c -0.8001,0.7239 -2.286,1.5621 -3.8862,1.5621 z"
         id="text1"
         transform="rotate(-2)"
         aria-label="Anna" /><path
         style="-inkscape-font-specification:'Comic Neue Bold';fill:url(#linearGradient14);stroke-width:1.3;stroke-linecap:round;paint-order:stroke markers fill"
         d="m 31.386971,66.689368 c 1.143,0 1.905,-0.8763 1.905,-1.828799 0,-0.4572 -0.1143,-0.7239 -0.2667,-1.1811 l -7.5819,-21.9837 c -0.3048,-0.9144 -1.0287,-1.2573 -1.7526,-1.2573 -0.762,0 -1.4859,0.4191 -1.7907,1.1811 l -5.638799,14.3256 -1.4097,0.3048 c -0.8382,0.1905 -1.4478,0.9144 -1.4478,1.8288 0,0.8001 0.381,1.3716 0.9906,1.6764 0.1143,0.0762 0.2286,0.1143 0.3429,0.1524 l -1.524,3.81 c -0.1524,0.381 -0.2667,0.8001 -0.2667,1.143 0,0.990599 0.8763,1.790699 1.905,1.790699 0.9144,0 1.4859,-0.5715 1.7526,-1.2192 l 2.4765,-6.248399 7.772399,-1.7145 2.7432,7.924799 c 0.2667,0.8382 0.8382,1.2954 1.7907,1.2954 z m -10.7061,-11.696699 2.8575,-7.2009 2.0574,6.1341 z m 20.802601,11.772899 c 2.286,0 4.1148,-1.2954 5.4102,-2.209799 v 0.4191 c 0,1.028699 0.9525,1.676399 1.9431,1.676399 0.9906,0 1.8288,-0.8763 1.8288,-1.828799 v -15.4686 c 0,-1.0287 -0.8763,-1.7526 -1.8288,-1.7526 -0.8763,0 -1.7907,0.7239 -1.7907,1.7526 l -0.0762,10.8585 c 0,0.4572 -0.0762,0.8001 -0.2286,0.9525 -0.6477,0.7239 -2.8194,2.1717 -4.8768,2.1717 -1.3716,0 -2.5146,-1.0287 -2.5146,-6.6675 0,-3.8481 0.4572,-6.6294 0.4572,-7.2771 0,-1.2192 -0.8763,-1.7907 -1.8288,-1.7907 -1.1049,0 -1.6002,0.7239 -1.7907,1.9431 -0.2667,1.7145 -0.4191,4.3815 -0.4191,6.2865 0,9.0297 1.8669,10.934699 5.715,10.934699 z m 16.382986,-0.1143 c 0.9144,0 1.8288,-0.8382 1.8288,-1.752599 l 0.0381,-7.239 c 0,-1.5621 0.1524,-2.8956 1.2954,-4.3434 0.6477,-0.8763 2.0193,-2.1336 3.048,-2.1336 0.6477,0 0.8382,0.2286 0.8382,0.6096 v 0.4953 c 0,0.8763 0.4572,1.8288 1.7907,1.8288 1.0287,0 1.7907,-0.8001 1.7907,-1.7907 v -1.143 c 0,-1.6383 -0.8001,-3.6195 -3.6576,-3.6195 -2.2479,0 -3.9243,1.1049 -5.1054,3.048 v -1.143 c 0,-1.0287 -0.8382,-1.8288 -1.8669,-1.8288 -0.9906,0 -1.866899,0.8001 -1.866899,1.8288 v 15.4305 c 0,0.914399 0.914399,1.752599 1.866899,1.752599 z m 19.583396,0 c 4.8387,0 8.9535,-4.648199 8.9535,-10.210799 0,-4.6863 -3.429,-8.8011 -7.8867,-8.8011 -4.838699,0 -8.915399,4.6863 -8.915399,10.1727 0,4.8768 3.3909,8.839199 7.848599,8.839199 z m 0,-3.428999 c -2.0574,0 -4.114799,-1.905 -4.114799,-5.4483 0,-3.5433 2.324099,-6.7056 5.029199,-6.7056 2.4003,0 4.3053,2.6289 4.3053,5.5626 0,3.5052 -2.4765,6.5913 -5.2197,6.5913 z m 14.935209,3.428999 c 0.9144,0 1.8288,-0.8382 1.8288,-1.752599 l 0.0381,-7.239 c 0,-1.5621 0.1524,-2.8956 1.2954,-4.3434 0.6477,-0.8763 2.0193,-2.1336 3.047999,-2.1336 0.6477,0 0.8382,0.2286 0.8382,0.6096 v 0.4953 c 0,0.8763 0.4572,1.8288 1.790698,1.8288 1.0287,0 1.7907,-0.8001 1.7907,-1.7907 v -1.143 c 0,-1.6383 -0.8001,-3.6195 -3.657598,-3.6195 -2.247899,0 -3.924299,1.1049 -5.105399,3.048 v -1.143 c 0,-1.0287 -0.8382,-1.8288 -1.8669,-1.8288 -0.9906,0 -1.8669,0.8001 -1.8669,1.8288 v 15.4305 c 0,0.914399 0.9144,1.752599 1.8669,1.752599 z m 24.536367,0.381 c 1.0668,0 1.8288,-0.9144 1.8288,-1.904999 v -15.8496 c -0.9906,-0.4572 -3.3528,-1.6383 -6.096,-1.6383 -5.6388,0 -9.144,5.5245 -9.144,10.7823 0,4.9149 3.1623,8.229599 7.3533,8.229599 1.524,0 3.1623,-0.4191 4.3434,-1.676399 v 0.533399 c 0,0.9144 0.6858,1.524 1.7145,1.524 z m -5.7912,-3.924299 c -2.4384,0 -3.9243,-1.6002 -3.9243,-4.7625 0,-3.7338 2.1717,-7.2009 5.5245,-7.2009 0.8001,0 1.7526,0.1905 2.4003,0.4572 l -0.1143,9.9441 c -0.8001,0.7239 -2.286,1.5621 -3.8862,1.5621 z"
         id="text3"
         transform="rotate(2)"
         aria-label="Aurora" /></g></g></svg>
